<?xml version="1.0" encoding="UTF-8" standalone="no"?>
<!DOCTYPE svg PUBLIC "-//W3C//DTD SVG 1.1//EN"
 "http://www.w3.org/Graphics/SVG/1.1/DTD/svg11.dtd">
<!-- Generated by graphviz version 2.38.0 (20140413.2041)
 -->
<!-- Title: %3 Pages: 1 -->
<svg width="1585pt" height="676pt"
 viewBox="0.00 0.00 1584.57 676.41" xmlns="http://www.w3.org/2000/svg" xmlns:xlink="http://www.w3.org/1999/xlink">
<g id="graph0" class="graph" transform="scale(1 1) rotate(0) translate(4 672.414)">
<title>%3</title>
<polygon fill="none" stroke="none" points="-4,4 -4,-672.414 1580.57,-672.414 1580.57,4 -4,4"/>
<!-- 1521732754896710273 -->
<g id="node1" class="node"><title>1521732754896710273</title>
<polygon fill="none" stroke="black" stroke-width="3" points="327.347,-319.649 201.884,-319.649 201.884,-283.649 327.347,-283.649 327.347,-319.649"/>
<text text-anchor="middle" x="264.616" y="-297.449" font-family="Times,serif" font-size="14.00" fill="#000000">(&#39;wrapped&#45;#0&#39;, 2, 0)</text>
</g>
<!-- &#45;696214606995933737 -->
<g id="node23" class="node"><title>&#45;696214606995933737</title>
<ellipse fill="none" stroke="black" stroke-width="3" cx="260.616" cy="-399.156" rx="43.5146" ry="43.5146"/>
<text text-anchor="middle" x="260.616" y="-394.956" font-family="Times,serif" font-size="14.00" fill="#000000">transpose</text>
</g>
<!-- 1521732754896710273&#45;&gt;&#45;696214606995933737 -->
<g id="edge18" class="edge"><title>1521732754896710273&#45;&gt;&#45;696214606995933737</title>
<path fill="none" stroke="black" stroke-width="3" d="M263.901,-319.723C263.594,-327.052 263.217,-336.053 262.829,-345.312"/>
<polygon fill="black" stroke="black" stroke-width="3" points="259.328,-345.256 262.407,-355.393 266.322,-345.549 259.328,-345.256"/>
</g>
<!-- 4901934351409556371 -->
<g id="node39" class="node"><title>4901934351409556371</title>
<ellipse fill="none" stroke="black" stroke-width="3" cx="124.616" cy="-399.156" rx="22.7515" ry="22.7515"/>
<text text-anchor="middle" x="124.616" y="-394.956" font-family="Times,serif" font-size="14.00" fill="#000000">add</text>
</g>
<!-- 1521732754896710273&#45;&gt;4901934351409556371 -->
<g id="edge33" class="edge"><title>1521732754896710273&#45;&gt;4901934351409556371</title>
<path fill="none" stroke="black" stroke-width="3" d="M239.587,-319.723C214.822,-336.618 177.034,-362.397 151.607,-379.743"/>
<polygon fill="black" stroke="black" stroke-width="3" points="149.459,-376.971 143.171,-385.498 153.404,-382.754 149.459,-376.971"/>
</g>
<!-- 7567000994494709137 -->
<g id="node2" class="node"><title>7567000994494709137</title>
<ellipse fill="none" stroke="black" stroke-width="3" cx="264.616" cy="-204.141" rx="26.1352" ry="26.1352"/>
<text text-anchor="middle" x="264.616" y="-199.941" font-family="Times,serif" font-size="14.00" fill="#000000">ones</text>
</g>
<!-- 7567000994494709137&#45;&gt;1521732754896710273 -->
<g id="edge1" class="edge"><title>7567000994494709137&#45;&gt;1521732754896710273</title>
<path fill="none" stroke="black" stroke-width="3" d="M264.616,-230.485C264.616,-243.741 264.616,-259.977 264.616,-273.49"/>
<polygon fill="black" stroke="black" stroke-width="3" points="261.116,-273.636 264.616,-283.636 268.116,-273.636 261.116,-273.636"/>
</g>
<!-- 5787578160386320387 -->
<g id="node3" class="node"><title>5787578160386320387</title>
<polygon fill="none" stroke="black" stroke-width="3" points="192.361,-668.414 94.8703,-668.414 94.8703,-632.414 192.361,-632.414 192.361,-668.414"/>
<text text-anchor="middle" x="143.616" y="-646.214" font-family="Times,serif" font-size="14.00" fill="#000000">(&#39;add&#45;#1&#39;, 0, 2)</text>
</g>
<!-- &#45;7881768570615524289 -->
<g id="node4" class="node"><title>&#45;7881768570615524289</title>
<ellipse fill="none" stroke="black" stroke-width="3" cx="143.616" cy="-573.539" rx="22.7515" ry="22.7515"/>
<text text-anchor="middle" x="143.616" y="-569.339" font-family="Times,serif" font-size="14.00" fill="#000000">add</text>
</g>
<!-- &#45;7881768570615524289&#45;&gt;5787578160386320387 -->
<g id="edge2" class="edge"><title>&#45;7881768570615524289&#45;&gt;5787578160386320387</title>
<path fill="none" stroke="black" stroke-width="3" d="M143.616,-596.599C143.616,-604.606 143.616,-613.75 143.616,-622.153"/>
<polygon fill="black" stroke="black" stroke-width="3" points="140.116,-622.26 143.616,-632.26 147.116,-622.26 140.116,-622.26"/>
</g>
<!-- 7461141618964348635 -->
<g id="node5" class="node"><title>7461141618964348635</title>
<polygon fill="none" stroke="black" stroke-width="3" points="325.523,-514.663 195.708,-514.663 195.708,-478.663 325.523,-478.663 325.523,-514.663"/>
<text text-anchor="middle" x="260.616" y="-492.463" font-family="Times,serif" font-size="14.00" fill="#000000">(&#39;transpose&#45;#2&#39;, 0, 2)</text>
</g>
<!-- 7461141618964348635&#45;&gt;&#45;7881768570615524289 -->
<g id="edge3" class="edge"><title>7461141618964348635&#45;&gt;&#45;7881768570615524289</title>
<path fill="none" stroke="black" stroke-width="3" d="M233.774,-514.841C215.02,-526.843 190.054,-542.82 171.15,-554.918"/>
<polygon fill="black" stroke="black" stroke-width="3" points="169.209,-552.004 162.673,-560.343 172.983,-557.9 169.209,-552.004"/>
</g>
<!-- 1521730232505042725 -->
<g id="node6" class="node"><title>1521730232505042725</title>
<polygon fill="none" stroke="black" stroke-width="3" points="125.347,-124.634 -0.115937,-124.634 -0.115937,-88.6339 125.347,-88.6339 125.347,-124.634"/>
<text text-anchor="middle" x="62.6157" y="-102.434" font-family="Times,serif" font-size="14.00" fill="#000000">(&#39;wrapped&#45;#0&#39;, 0, 2)</text>
</g>
<!-- 1521730232505042725&#45;&gt;&#45;7881768570615524289 -->
<g id="edge4" class="edge"><title>1521730232505042725&#45;&gt;&#45;7881768570615524289</title>
<path fill="none" stroke="black" stroke-width="3" d="M57.0764,-124.725C46.7547,-158.138 25.6157,-234.627 25.6157,-300.649 25.6157,-300.649 25.6157,-300.649 25.6157,-400.156 25.6157,-454.212 34.549,-471.146 66.6157,-514.663 79.4223,-532.043 98.8933,-546.612 115.051,-556.785"/>
<polygon fill="black" stroke="black" stroke-width="3" points="113.256,-559.789 123.623,-561.974 116.881,-553.801 113.256,-559.789"/>
</g>
<!-- 3878565563061796139 -->
<g id="node54" class="node"><title>3878565563061796139</title>
<ellipse fill="none" stroke="black" stroke-width="3" cx="108.616" cy="-204.141" rx="43.5146" ry="43.5146"/>
<text text-anchor="middle" x="108.616" y="-199.941" font-family="Times,serif" font-size="14.00" fill="#000000">transpose</text>
</g>
<!-- 1521730232505042725&#45;&gt;3878565563061796139 -->
<g id="edge54" class="edge"><title>1521730232505042725&#45;&gt;3878565563061796139</title>
<path fill="none" stroke="black" stroke-width="3" d="M70.8396,-124.709C74.9986,-133.344 80.2754,-144.3 85.5564,-155.264"/>
<polygon fill="black" stroke="black" stroke-width="3" points="82.4763,-156.935 89.969,-164.426 88.7829,-153.898 82.4763,-156.935"/>
</g>
<!-- 7461141618967843782 -->
<g id="node7" class="node"><title>7461141618967843782</title>
<polygon fill="none" stroke="black" stroke-width="3" points="514.523,-319.649 384.708,-319.649 384.708,-283.649 514.523,-283.649 514.523,-319.649"/>
<text text-anchor="middle" x="449.616" y="-297.449" font-family="Times,serif" font-size="14.00" fill="#000000">(&#39;transpose&#45;#2&#39;, 0, 1)</text>
</g>
<!-- 6464522337839281702 -->
<g id="node45" class="node"><title>6464522337839281702</title>
<ellipse fill="none" stroke="black" stroke-width="3" cx="451.616" cy="-399.156" rx="22.7515" ry="22.7515"/>
<text text-anchor="middle" x="451.616" y="-394.956" font-family="Times,serif" font-size="14.00" fill="#000000">add</text>
</g>
<!-- 7461141618967843782&#45;&gt;6464522337839281702 -->
<g id="edge39" class="edge"><title>7461141618967843782&#45;&gt;6464522337839281702</title>
<path fill="none" stroke="black" stroke-width="3" d="M449.973,-319.723C450.242,-332.54 450.617,-350.47 450.941,-365.952"/>
<polygon fill="black" stroke="black" stroke-width="3" points="447.447,-366.262 451.156,-376.186 454.445,-366.115 447.447,-366.262"/>
</g>
<!-- 4043654180359743870 -->
<g id="node8" class="node"><title>4043654180359743870</title>
<ellipse fill="none" stroke="black" stroke-width="3" cx="439.616" cy="-204.141" rx="43.5146" ry="43.5146"/>
<text text-anchor="middle" x="439.616" y="-199.941" font-family="Times,serif" font-size="14.00" fill="#000000">transpose</text>
</g>
<!-- 4043654180359743870&#45;&gt;7461141618967843782 -->
<g id="edge5" class="edge"><title>4043654180359743870&#45;&gt;7461141618967843782</title>
<path fill="none" stroke="black" stroke-width="3" d="M444.06,-247.588C444.964,-256.22 445.892,-265.085 446.725,-273.038"/>
<polygon fill="black" stroke="black" stroke-width="3" points="443.267,-273.628 447.79,-283.209 450.229,-272.899 443.267,-273.628"/>
</g>
<!-- 1521731493699711450 -->
<g id="node9" class="node"><title>1521731493699711450</title>
<polygon fill="none" stroke="black" stroke-width="3" points="460.347,-124.634 334.884,-124.634 334.884,-88.6339 460.347,-88.6339 460.347,-124.634"/>
<text text-anchor="middle" x="397.616" y="-102.434" font-family="Times,serif" font-size="14.00" fill="#000000">(&#39;wrapped&#45;#0&#39;, 1, 0)</text>
</g>
<!-- 1521731493699711450&#45;&gt;4043654180359743870 -->
<g id="edge6" class="edge"><title>1521731493699711450&#45;&gt;4043654180359743870</title>
<path fill="none" stroke="black" stroke-width="3" d="M405.124,-124.709C408.847,-133.174 413.551,-143.871 418.278,-154.619"/>
<polygon fill="black" stroke="black" stroke-width="3" points="415.184,-156.278 422.413,-164.023 421.592,-153.461 415.184,-156.278"/>
</g>
<!-- &#45;808411157750755072 -->
<g id="node25" class="node"><title>&#45;808411157750755072</title>
<ellipse fill="none" stroke="black" stroke-width="3" cx="471.616" cy="-573.539" rx="22.7515" ry="22.7515"/>
<text text-anchor="middle" x="471.616" y="-569.339" font-family="Times,serif" font-size="14.00" fill="#000000">add</text>
</g>
<!-- 1521731493699711450&#45;&gt;&#45;808411157750755072 -->
<g id="edge20" class="edge"><title>1521731493699711450&#45;&gt;&#45;808411157750755072</title>
<path fill="none" stroke="black" stroke-width="3" d="M391.478,-124.677C380.04,-158.008 356.616,-234.361 356.616,-300.649 356.616,-300.649 356.616,-300.649 356.616,-400.156 356.616,-453.639 362.432,-471.212 393.616,-514.663 406.391,-532.464 426.292,-547.105 442.795,-557.207"/>
<polygon fill="black" stroke="black" stroke-width="3" points="441.15,-560.3 451.546,-562.344 444.694,-554.264 441.15,-560.3"/>
</g>
<!-- 7461141618966678733 -->
<g id="node10" class="node"><title>7461141618966678733</title>
<polygon fill="none" stroke="black" stroke-width="3" points="806.523,-319.649 676.708,-319.649 676.708,-283.649 806.523,-283.649 806.523,-319.649"/>
<text text-anchor="middle" x="741.616" y="-297.449" font-family="Times,serif" font-size="14.00" fill="#000000">(&#39;transpose&#45;#2&#39;, 0, 0)</text>
</g>
<!-- 7811144219563916277 -->
<g id="node50" class="node"><title>7811144219563916277</title>
<ellipse fill="none" stroke="black" stroke-width="3" cx="778.616" cy="-399.156" rx="22.7515" ry="22.7515"/>
<text text-anchor="middle" x="778.616" y="-394.956" font-family="Times,serif" font-size="14.00" fill="#000000">add</text>
</g>
<!-- 7461141618966678733&#45;&gt;7811144219563916277 -->
<g id="edge47" class="edge"><title>7461141618966678733&#45;&gt;7811144219563916277</title>
<path fill="none" stroke="black" stroke-width="3" d="M748.231,-319.723C753.429,-333.142 760.799,-352.165 766.978,-368.116"/>
<polygon fill="black" stroke="black" stroke-width="3" points="763.766,-369.513 770.642,-377.574 770.293,-366.985 763.766,-369.513"/>
</g>
<!-- 1737904150301732813 -->
<g id="node11" class="node"><title>1737904150301732813</title>
<ellipse fill="none" stroke="black" stroke-width="3" cx="751.616" cy="-204.141" rx="43.5146" ry="43.5146"/>
<text text-anchor="middle" x="751.616" y="-199.941" font-family="Times,serif" font-size="14.00" fill="#000000">transpose</text>
</g>
<!-- 1737904150301732813&#45;&gt;7461141618966678733 -->
<g id="edge7" class="edge"><title>1737904150301732813&#45;&gt;7461141618966678733</title>
<path fill="none" stroke="black" stroke-width="3" d="M747.171,-247.588C746.268,-256.22 745.339,-265.085 744.507,-273.038"/>
<polygon fill="black" stroke="black" stroke-width="3" points="741.002,-272.899 743.442,-283.209 747.964,-273.628 741.002,-272.899"/>
</g>
<!-- 1521730232502712627 -->
<g id="node12" class="node"><title>1521730232502712627</title>
<polygon fill="none" stroke="black" stroke-width="3" points="834.347,-124.634 708.884,-124.634 708.884,-88.6339 834.347,-88.6339 834.347,-124.634"/>
<text text-anchor="middle" x="771.616" y="-102.434" font-family="Times,serif" font-size="14.00" fill="#000000">(&#39;wrapped&#45;#0&#39;, 0, 0)</text>
</g>
<!-- 1521730232502712627&#45;&gt;1737904150301732813 -->
<g id="edge8" class="edge"><title>1521730232502712627&#45;&gt;1737904150301732813</title>
<path fill="none" stroke="black" stroke-width="3" d="M768.04,-124.709C766.456,-132.275 764.498,-141.623 762.493,-151.197"/>
<polygon fill="black" stroke="black" stroke-width="3" points="759.024,-150.687 760.4,-161.192 765.876,-152.121 759.024,-150.687"/>
</g>
<!-- 1521730232502712627&#45;&gt;7811144219563916277 -->
<g id="edge46" class="edge"><title>1521730232502712627&#45;&gt;7811144219563916277</title>
<path fill="none" stroke="black" stroke-width="3" d="M785.148,-124.736C792.218,-134.641 800.28,-147.683 804.616,-160.634 827.105,-227.812 831.09,-250.517 815.616,-319.649 811.647,-337.379 803.208,-355.825 795.39,-370.379"/>
<polygon fill="black" stroke="black" stroke-width="3" points="792.21,-368.895 790.395,-379.334 798.323,-372.305 792.21,-368.895"/>
</g>
<!-- 5787579421587979406 -->
<g id="node13" class="node"><title>5787579421587979406</title>
<polygon fill="none" stroke="black" stroke-width="3" points="1035.36,-514.663 937.87,-514.663 937.87,-478.663 1035.36,-478.663 1035.36,-514.663"/>
<text text-anchor="middle" x="986.616" y="-492.463" font-family="Times,serif" font-size="14.00" fill="#000000">(&#39;add&#45;#1&#39;, 1, 2)</text>
</g>
<!-- &#45;4754191964511552122 -->
<g id="node14" class="node"><title>&#45;4754191964511552122</title>
<ellipse fill="none" stroke="black" stroke-width="3" cx="986.616" cy="-399.156" rx="22.7515" ry="22.7515"/>
<text text-anchor="middle" x="986.616" y="-394.956" font-family="Times,serif" font-size="14.00" fill="#000000">add</text>
</g>
<!-- &#45;4754191964511552122&#45;&gt;5787579421587979406 -->
<g id="edge9" class="edge"><title>&#45;4754191964511552122&#45;&gt;5787579421587979406</title>
<path fill="none" stroke="black" stroke-width="3" d="M986.616,-422.307C986.616,-435.92 986.616,-453.473 986.616,-467.996"/>
<polygon fill="black" stroke="black" stroke-width="3" points="983.116,-468.395 986.616,-478.395 990.116,-468.395 983.116,-468.395"/>
</g>
<!-- 1521731493697381352 -->
<g id="node15" class="node"><title>1521731493697381352</title>
<polygon fill="none" stroke="black" stroke-width="3" points="1193.35,-319.649 1067.88,-319.649 1067.88,-283.649 1193.35,-283.649 1193.35,-319.649"/>
<text text-anchor="middle" x="1130.62" y="-297.449" font-family="Times,serif" font-size="14.00" fill="#000000">(&#39;wrapped&#45;#0&#39;, 1, 2)</text>
</g>
<!-- 1521731493697381352&#45;&gt;&#45;4754191964511552122 -->
<g id="edge10" class="edge"><title>1521731493697381352&#45;&gt;&#45;4754191964511552122</title>
<path fill="none" stroke="black" stroke-width="3" d="M1104.87,-319.723C1079.25,-336.714 1040.09,-362.69 1013.93,-380.037"/>
<polygon fill="black" stroke="black" stroke-width="3" points="1011.67,-377.341 1005.27,-385.785 1015.54,-383.174 1011.67,-377.341"/>
</g>
<!-- &#45;127796588828830036 -->
<g id="node51" class="node"><title>&#45;127796588828830036</title>
<ellipse fill="none" stroke="black" stroke-width="3" cx="1123.62" cy="-399.156" rx="43.5146" ry="43.5146"/>
<text text-anchor="middle" x="1123.62" y="-394.956" font-family="Times,serif" font-size="14.00" fill="#000000">transpose</text>
</g>
<!-- 1521731493697381352&#45;&gt;&#45;127796588828830036 -->
<g id="edge49" class="edge"><title>1521731493697381352&#45;&gt;&#45;127796588828830036</title>
<path fill="none" stroke="black" stroke-width="3" d="M1129.36,-319.723C1128.83,-327.052 1128.17,-336.053 1127.49,-345.312"/>
<polygon fill="black" stroke="black" stroke-width="3" points="1123.99,-345.164 1126.75,-355.393 1130.97,-345.676 1123.99,-345.164"/>
</g>
<!-- 7461142880166007654 -->
<g id="node16" class="node"><title>7461142880166007654</title>
<polygon fill="none" stroke="black" stroke-width="3" points="1049.52,-319.649 919.708,-319.649 919.708,-283.649 1049.52,-283.649 1049.52,-319.649"/>
<text text-anchor="middle" x="984.616" y="-297.449" font-family="Times,serif" font-size="14.00" fill="#000000">(&#39;transpose&#45;#2&#39;, 1, 2)</text>
</g>
<!-- 7461142880166007654&#45;&gt;&#45;4754191964511552122 -->
<g id="edge11" class="edge"><title>7461142880166007654&#45;&gt;&#45;4754191964511552122</title>
<path fill="none" stroke="black" stroke-width="3" d="M984.973,-319.723C985.242,-332.54 985.617,-350.47 985.941,-365.952"/>
<polygon fill="black" stroke="black" stroke-width="3" points="982.447,-366.262 986.156,-376.186 989.445,-366.115 982.447,-366.262"/>
</g>
<!-- 1521732754894380175 -->
<g id="node17" class="node"><title>1521732754894380175</title>
<polygon fill="none" stroke="black" stroke-width="3" points="1352.35,-124.634 1226.88,-124.634 1226.88,-88.6339 1352.35,-88.6339 1352.35,-124.634"/>
<text text-anchor="middle" x="1289.62" y="-102.434" font-family="Times,serif" font-size="14.00" fill="#000000">(&#39;wrapped&#45;#0&#39;, 2, 2)</text>
</g>
<!-- 1272005999798411625 -->
<g id="node20" class="node"><title>1272005999798411625</title>
<ellipse fill="none" stroke="black" stroke-width="3" cx="1280.62" cy="-399.156" rx="22.7515" ry="22.7515"/>
<text text-anchor="middle" x="1280.62" y="-394.956" font-family="Times,serif" font-size="14.00" fill="#000000">add</text>
</g>
<!-- 1521732754894380175&#45;&gt;1272005999798411625 -->
<g id="edge15" class="edge"><title>1521732754894380175&#45;&gt;1272005999798411625</title>
<path fill="none" stroke="black" stroke-width="3" d="M1273.62,-124.878C1265.57,-134.627 1256.5,-147.473 1251.62,-160.634 1226.95,-227.044 1224.08,-250.764 1240.62,-319.649 1244.95,-337.707 1254.17,-356.294 1262.67,-370.847"/>
<polygon fill="black" stroke="black" stroke-width="3" points="1259.91,-373.047 1268.09,-379.781 1265.89,-369.416 1259.91,-373.047"/>
</g>
<!-- &#45;273327164612222911 -->
<g id="node46" class="node"><title>&#45;273327164612222911</title>
<ellipse fill="none" stroke="black" stroke-width="3" cx="1304.62" cy="-204.141" rx="43.5146" ry="43.5146"/>
<text text-anchor="middle" x="1304.62" y="-199.941" font-family="Times,serif" font-size="14.00" fill="#000000">transpose</text>
</g>
<!-- 1521732754894380175&#45;&gt;&#45;273327164612222911 -->
<g id="edge41" class="edge"><title>1521732754894380175&#45;&gt;&#45;273327164612222911</title>
<path fill="none" stroke="black" stroke-width="3" d="M1292.3,-124.709C1293.47,-132.195 1294.92,-141.426 1296.41,-150.895"/>
<polygon fill="black" stroke="black" stroke-width="3" points="1292.95,-151.45 1297.96,-160.785 1299.87,-150.363 1292.95,-151.45"/>
</g>
<!-- 1737214900822731387 -->
<g id="node18" class="node"><title>1737214900822731387</title>
<ellipse fill="none" stroke="black" stroke-width="3" cx="1289.62" cy="-26.317" rx="26.1352" ry="26.1352"/>
<text text-anchor="middle" x="1289.62" y="-22.117" font-family="Times,serif" font-size="14.00" fill="#000000">ones</text>
</g>
<!-- 1737214900822731387&#45;&gt;1521732754894380175 -->
<g id="edge12" class="edge"><title>1737214900822731387&#45;&gt;1521732754894380175</title>
<path fill="none" stroke="black" stroke-width="3" d="M1289.62,-52.9609C1289.62,-61.0256 1289.62,-69.962 1289.62,-78.1491"/>
<polygon fill="black" stroke="black" stroke-width="3" points="1286.12,-78.3439 1289.62,-88.3439 1293.12,-78.3439 1286.12,-78.3439"/>
</g>
<!-- 5787575637996982937 -->
<g id="node19" class="node"><title>5787575637996982937</title>
<polygon fill="none" stroke="black" stroke-width="3" points="1329.36,-514.663 1231.87,-514.663 1231.87,-478.663 1329.36,-478.663 1329.36,-514.663"/>
<text text-anchor="middle" x="1280.62" y="-492.463" font-family="Times,serif" font-size="14.00" fill="#000000">(&#39;add&#45;#1&#39;, 2, 2)</text>
</g>
<!-- 1272005999798411625&#45;&gt;5787575637996982937 -->
<g id="edge13" class="edge"><title>1272005999798411625&#45;&gt;5787575637996982937</title>
<path fill="none" stroke="black" stroke-width="3" d="M1280.62,-422.307C1280.62,-435.92 1280.62,-453.473 1280.62,-467.996"/>
<polygon fill="black" stroke="black" stroke-width="3" points="1277.12,-468.395 1280.62,-478.395 1284.12,-468.395 1277.12,-468.395"/>
</g>
<!-- 7461139096575011185 -->
<g id="node21" class="node"><title>7461139096575011185</title>
<polygon fill="none" stroke="black" stroke-width="3" points="1379.52,-319.649 1249.71,-319.649 1249.71,-283.649 1379.52,-283.649 1379.52,-319.649"/>
<text text-anchor="middle" x="1314.62" y="-297.449" font-family="Times,serif" font-size="14.00" fill="#000000">(&#39;transpose&#45;#2&#39;, 2, 2)</text>
</g>
<!-- 7461139096575011185&#45;&gt;1272005999798411625 -->
<g id="edge14" class="edge"><title>7461139096575011185&#45;&gt;1272005999798411625</title>
<path fill="none" stroke="black" stroke-width="3" d="M1308.54,-319.723C1303.79,-333.053 1297.08,-351.914 1291.42,-367.799"/>
<polygon fill="black" stroke="black" stroke-width="3" points="1288.12,-366.635 1288.07,-377.23 1294.72,-368.983 1288.12,-366.635"/>
</g>
<!-- 9173684020808017426 -->
<g id="node22" class="node"><title>9173684020808017426</title>
<ellipse fill="none" stroke="black" stroke-width="3" cx="397.616" cy="-26.317" rx="26.1352" ry="26.1352"/>
<text text-anchor="middle" x="397.616" y="-22.117" font-family="Times,serif" font-size="14.00" fill="#000000">ones</text>
</g>
<!-- 9173684020808017426&#45;&gt;1521731493699711450 -->
<g id="edge16" class="edge"><title>9173684020808017426&#45;&gt;1521731493699711450</title>
<path fill="none" stroke="black" stroke-width="3" d="M397.616,-52.9609C397.616,-61.0256 397.616,-69.962 397.616,-78.1491"/>
<polygon fill="black" stroke="black" stroke-width="3" points="394.116,-78.3439 397.616,-88.3439 401.116,-78.3439 394.116,-78.3439"/>
</g>
<!-- &#45;696214606995933737&#45;&gt;7461141618964348635 -->
<g id="edge17" class="edge"><title>&#45;696214606995933737&#45;&gt;7461141618964348635</title>
<path fill="none" stroke="black" stroke-width="3" d="M260.616,-442.881C260.616,-451.486 260.616,-460.311 260.616,-468.222"/>
<polygon fill="black" stroke="black" stroke-width="3" points="257.116,-468.336 260.616,-478.336 264.116,-468.336 257.116,-468.336"/>
</g>
<!-- 5787579421585649308 -->
<g id="node24" class="node"><title>5787579421585649308</title>
<polygon fill="none" stroke="black" stroke-width="3" points="520.361,-668.414 422.87,-668.414 422.87,-632.414 520.361,-632.414 520.361,-668.414"/>
<text text-anchor="middle" x="471.616" y="-646.214" font-family="Times,serif" font-size="14.00" fill="#000000">(&#39;add&#45;#1&#39;, 1, 0)</text>
</g>
<!-- &#45;808411157750755072&#45;&gt;5787579421585649308 -->
<g id="edge19" class="edge"><title>&#45;808411157750755072&#45;&gt;5787579421585649308</title>
<path fill="none" stroke="black" stroke-width="3" d="M471.616,-596.599C471.616,-604.606 471.616,-613.75 471.616,-622.153"/>
<polygon fill="black" stroke="black" stroke-width="3" points="468.116,-622.26 471.616,-632.26 475.116,-622.26 468.116,-622.26"/>
</g>
<!-- 7461142880163677556 -->
<g id="node26" class="node"><title>7461142880163677556</title>
<polygon fill="none" stroke="black" stroke-width="3" points="650.523,-514.663 520.708,-514.663 520.708,-478.663 650.523,-478.663 650.523,-514.663"/>
<text text-anchor="middle" x="585.616" y="-492.463" font-family="Times,serif" font-size="14.00" fill="#000000">(&#39;transpose&#45;#2&#39;, 1, 0)</text>
</g>
<!-- 7461142880163677556&#45;&gt;&#45;808411157750755072 -->
<g id="edge21" class="edge"><title>7461142880163677556&#45;&gt;&#45;808411157750755072</title>
<path fill="none" stroke="black" stroke-width="3" d="M559.462,-514.841C541.384,-526.714 517.384,-542.478 499.038,-554.528"/>
<polygon fill="black" stroke="black" stroke-width="3" points="496.973,-551.696 490.536,-560.111 500.816,-557.547 496.973,-551.696"/>
</g>
<!-- 5787575637995817888 -->
<g id="node27" class="node"><title>5787575637995817888</title>
<polygon fill="none" stroke="black" stroke-width="3" points="1054.36,-668.414 956.87,-668.414 956.87,-632.414 1054.36,-632.414 1054.36,-668.414"/>
<text text-anchor="middle" x="1005.62" y="-646.214" font-family="Times,serif" font-size="14.00" fill="#000000">(&#39;add&#45;#1&#39;, 2, 1)</text>
</g>
<!-- 3348893906678059796 -->
<g id="node28" class="node"><title>3348893906678059796</title>
<ellipse fill="none" stroke="black" stroke-width="3" cx="1005.62" cy="-573.539" rx="22.7515" ry="22.7515"/>
<text text-anchor="middle" x="1005.62" y="-569.339" font-family="Times,serif" font-size="14.00" fill="#000000">add</text>
</g>
<!-- 3348893906678059796&#45;&gt;5787575637995817888 -->
<g id="edge22" class="edge"><title>3348893906678059796&#45;&gt;5787575637995817888</title>
<path fill="none" stroke="black" stroke-width="3" d="M1005.62,-596.599C1005.62,-604.606 1005.62,-613.75 1005.62,-622.153"/>
<polygon fill="black" stroke="black" stroke-width="3" points="1002.12,-622.26 1005.62,-632.26 1009.12,-622.26 1002.12,-622.26"/>
</g>
<!-- 7461139096573846136 -->
<g id="node29" class="node"><title>7461139096573846136</title>
<polygon fill="none" stroke="black" stroke-width="3" points="1185.52,-514.663 1055.71,-514.663 1055.71,-478.663 1185.52,-478.663 1185.52,-514.663"/>
<text text-anchor="middle" x="1120.62" y="-492.463" font-family="Times,serif" font-size="14.00" fill="#000000">(&#39;transpose&#45;#2&#39;, 2, 1)</text>
</g>
<!-- 7461139096573846136&#45;&gt;3348893906678059796 -->
<g id="edge23" class="edge"><title>7461139096573846136&#45;&gt;3348893906678059796</title>
<path fill="none" stroke="black" stroke-width="3" d="M1094.23,-514.841C1075.88,-526.789 1051.48,-542.675 1032.93,-554.753"/>
<polygon fill="black" stroke="black" stroke-width="3" points="1030.82,-551.953 1024.35,-560.343 1034.64,-557.819 1030.82,-551.953"/>
</g>
<!-- 1521732754897875322 -->
<g id="node30" class="node"><title>1521732754897875322</title>
<polygon fill="none" stroke="black" stroke-width="3" points="1017.35,-124.634 891.884,-124.634 891.884,-88.6339 1017.35,-88.6339 1017.35,-124.634"/>
<text text-anchor="middle" x="954.616" y="-102.434" font-family="Times,serif" font-size="14.00" fill="#000000">(&#39;wrapped&#45;#0&#39;, 2, 1)</text>
</g>
<!-- 1521732754897875322&#45;&gt;3348893906678059796 -->
<g id="edge24" class="edge"><title>1521732754897875322&#45;&gt;3348893906678059796</title>
<path fill="none" stroke="black" stroke-width="3" d="M941.687,-124.959C934.806,-134.934 926.732,-147.971 921.616,-160.634 897.774,-219.641 891.616,-237.007 891.616,-300.649 891.616,-300.649 891.616,-300.649 891.616,-400.156 891.616,-453.639 897.567,-471.116 928.616,-514.663 941.149,-532.241 960.622,-546.808 976.849,-556.931"/>
<polygon fill="black" stroke="black" stroke-width="3" points="975.087,-559.956 985.465,-562.088 978.683,-553.949 975.087,-559.956"/>
</g>
<!-- &#45;2202690912292776354 -->
<g id="node37" class="node"><title>&#45;2202690912292776354</title>
<ellipse fill="none" stroke="black" stroke-width="3" cx="974.616" cy="-204.141" rx="43.5146" ry="43.5146"/>
<text text-anchor="middle" x="974.616" y="-199.941" font-family="Times,serif" font-size="14.00" fill="#000000">transpose</text>
</g>
<!-- 1521732754897875322&#45;&gt;&#45;2202690912292776354 -->
<g id="edge31" class="edge"><title>1521732754897875322&#45;&gt;&#45;2202690912292776354</title>
<path fill="none" stroke="black" stroke-width="3" d="M958.191,-124.709C959.776,-132.275 961.733,-141.623 963.738,-151.197"/>
<polygon fill="black" stroke="black" stroke-width="3" points="960.356,-152.121 965.831,-161.192 967.207,-150.687 960.356,-152.121"/>
</g>
<!-- 1521731493698546401 -->
<g id="node31" class="node"><title>1521731493698546401</title>
<polygon fill="none" stroke="black" stroke-width="3" points="1516.35,-124.634 1390.88,-124.634 1390.88,-88.6339 1516.35,-88.6339 1516.35,-124.634"/>
<text text-anchor="middle" x="1453.62" y="-102.434" font-family="Times,serif" font-size="14.00" fill="#000000">(&#39;wrapped&#45;#0&#39;, 1, 1)</text>
</g>
<!-- &#45;1016733814307420897 -->
<g id="node34" class="node"><title>&#45;1016733814307420897</title>
<ellipse fill="none" stroke="black" stroke-width="3" cx="1423.62" cy="-399.156" rx="22.7515" ry="22.7515"/>
<text text-anchor="middle" x="1423.62" y="-394.956" font-family="Times,serif" font-size="14.00" fill="#000000">add</text>
</g>
<!-- 1521731493698546401&#45;&gt;&#45;1016733814307420897 -->
<g id="edge27" class="edge"><title>1521731493698546401&#45;&gt;&#45;1016733814307420897</title>
<path fill="none" stroke="black" stroke-width="3" d="M1451.62,-124.814C1450.43,-135.184 1448.9,-148.664 1447.62,-160.634 1439.75,-234.077 1431.2,-320.373 1426.74,-366.035"/>
<polygon fill="black" stroke="black" stroke-width="3" points="1423.23,-365.914 1425.74,-376.207 1430.2,-366.594 1423.23,-365.914"/>
</g>
<!-- &#45;4483112435916057929 -->
<g id="node53" class="node"><title>&#45;4483112435916057929</title>
<ellipse fill="none" stroke="black" stroke-width="3" cx="1500.62" cy="-204.141" rx="43.5146" ry="43.5146"/>
<text text-anchor="middle" x="1500.62" y="-199.941" font-family="Times,serif" font-size="14.00" fill="#000000">transpose</text>
</g>
<!-- 1521731493698546401&#45;&gt;&#45;4483112435916057929 -->
<g id="edge52" class="edge"><title>1521731493698546401&#45;&gt;&#45;4483112435916057929</title>
<path fill="none" stroke="black" stroke-width="3" d="M1462.02,-124.709C1466.31,-133.428 1471.76,-144.513 1477.21,-155.584"/>
<polygon fill="black" stroke="black" stroke-width="3" points="1474.21,-157.401 1481.76,-164.828 1480.49,-154.31 1474.21,-157.401"/>
</g>
<!-- 5767727431405450801 -->
<g id="node32" class="node"><title>5767727431405450801</title>
<ellipse fill="none" stroke="black" stroke-width="3" cx="1453.62" cy="-26.317" rx="26.1352" ry="26.1352"/>
<text text-anchor="middle" x="1453.62" y="-22.117" font-family="Times,serif" font-size="14.00" fill="#000000">ones</text>
</g>
<!-- 5767727431405450801&#45;&gt;1521731493698546401 -->
<g id="edge25" class="edge"><title>5767727431405450801&#45;&gt;1521731493698546401</title>
<path fill="none" stroke="black" stroke-width="3" d="M1453.62,-52.9609C1453.62,-61.0256 1453.62,-69.962 1453.62,-78.1491"/>
<polygon fill="black" stroke="black" stroke-width="3" points="1450.12,-78.3439 1453.62,-88.3439 1457.12,-78.3439 1450.12,-78.3439"/>
</g>
<!-- 5787579421584484259 -->
<g id="node33" class="node"><title>5787579421584484259</title>
<polygon fill="none" stroke="black" stroke-width="3" points="1472.36,-514.663 1374.87,-514.663 1374.87,-478.663 1472.36,-478.663 1472.36,-514.663"/>
<text text-anchor="middle" x="1423.62" y="-492.463" font-family="Times,serif" font-size="14.00" fill="#000000">(&#39;add&#45;#1&#39;, 1, 1)</text>
</g>
<!-- &#45;1016733814307420897&#45;&gt;5787579421584484259 -->
<g id="edge26" class="edge"><title>&#45;1016733814307420897&#45;&gt;5787579421584484259</title>
<path fill="none" stroke="black" stroke-width="3" d="M1423.62,-422.307C1423.62,-435.92 1423.62,-453.473 1423.62,-467.996"/>
<polygon fill="black" stroke="black" stroke-width="3" points="1420.12,-468.395 1423.62,-478.395 1427.12,-468.395 1420.12,-468.395"/>
</g>
<!-- 7461142880162512507 -->
<g id="node35" class="node"><title>7461142880162512507</title>
<polygon fill="none" stroke="black" stroke-width="3" points="1576.52,-319.649 1446.71,-319.649 1446.71,-283.649 1576.52,-283.649 1576.52,-319.649"/>
<text text-anchor="middle" x="1511.62" y="-297.449" font-family="Times,serif" font-size="14.00" fill="#000000">(&#39;transpose&#45;#2&#39;, 1, 1)</text>
</g>
<!-- 7461142880162512507&#45;&gt;&#45;1016733814307420897 -->
<g id="edge28" class="edge"><title>7461142880162512507&#45;&gt;&#45;1016733814307420897</title>
<path fill="none" stroke="black" stroke-width="3" d="M1495.88,-319.723C1481.82,-334.985 1461.08,-357.496 1445.42,-374.492"/>
<polygon fill="black" stroke="black" stroke-width="3" points="1442.83,-372.141 1438.62,-381.866 1447.97,-376.884 1442.83,-372.141"/>
</g>
<!-- 9204375340357182693 -->
<g id="node36" class="node"><title>9204375340357182693</title>
<ellipse fill="none" stroke="black" stroke-width="3" cx="62.6157" cy="-26.317" rx="26.1352" ry="26.1352"/>
<text text-anchor="middle" x="62.6157" y="-22.117" font-family="Times,serif" font-size="14.00" fill="#000000">ones</text>
</g>
<!-- 9204375340357182693&#45;&gt;1521730232505042725 -->
<g id="edge29" class="edge"><title>9204375340357182693&#45;&gt;1521730232505042725</title>
<path fill="none" stroke="black" stroke-width="3" d="M62.6157,-52.9609C62.6157,-61.0256 62.6157,-69.962 62.6157,-78.1491"/>
<polygon fill="black" stroke="black" stroke-width="3" points="59.1158,-78.3439 62.6157,-88.3439 66.1158,-78.3439 59.1158,-78.3439"/>
</g>
<!-- &#45;2202690912292776354&#45;&gt;7461142880166007654 -->
<g id="edge30" class="edge"><title>&#45;2202690912292776354&#45;&gt;7461142880166007654</title>
<path fill="none" stroke="black" stroke-width="3" d="M979.06,-247.588C979.964,-256.22 980.892,-265.085 981.725,-273.038"/>
<polygon fill="black" stroke="black" stroke-width="3" points="978.267,-273.628 982.79,-283.209 985.229,-272.899 978.267,-273.628"/>
</g>
<!-- 5787575637994652839 -->
<g id="node38" class="node"><title>5787575637994652839</title>
<polygon fill="none" stroke="black" stroke-width="3" points="173.361,-514.663 75.8703,-514.663 75.8703,-478.663 173.361,-478.663 173.361,-514.663"/>
<text text-anchor="middle" x="124.616" y="-492.463" font-family="Times,serif" font-size="14.00" fill="#000000">(&#39;add&#45;#1&#39;, 2, 0)</text>
</g>
<!-- 4901934351409556371&#45;&gt;5787575637994652839 -->
<g id="edge32" class="edge"><title>4901934351409556371&#45;&gt;5787575637994652839</title>
<path fill="none" stroke="black" stroke-width="3" d="M124.616,-422.307C124.616,-435.92 124.616,-453.473 124.616,-467.996"/>
<polygon fill="black" stroke="black" stroke-width="3" points="121.116,-468.395 124.616,-478.395 128.116,-468.395 121.116,-468.395"/>
</g>
<!-- 7461139096572681087 -->
<g id="node40" class="node"><title>7461139096572681087</title>
<polygon fill="none" stroke="black" stroke-width="3" points="183.523,-319.649 53.7085,-319.649 53.7085,-283.649 183.523,-283.649 183.523,-319.649"/>
<text text-anchor="middle" x="118.616" y="-297.449" font-family="Times,serif" font-size="14.00" fill="#000000">(&#39;transpose&#45;#2&#39;, 2, 0)</text>
</g>
<!-- 7461139096572681087&#45;&gt;4901934351409556371 -->
<g id="edge34" class="edge"><title>7461139096572681087&#45;&gt;4901934351409556371</title>
<path fill="none" stroke="black" stroke-width="3" d="M119.688,-319.723C120.494,-332.54 121.62,-350.47 122.593,-365.952"/>
<polygon fill="black" stroke="black" stroke-width="3" points="119.115,-366.426 123.236,-376.186 126.102,-365.987 119.115,-366.426"/>
</g>
<!-- 2858680112318038876 -->
<g id="node41" class="node"><title>2858680112318038876</title>
<ellipse fill="none" stroke="black" stroke-width="3" cx="1130.62" cy="-204.141" rx="26.1352" ry="26.1352"/>
<text text-anchor="middle" x="1130.62" y="-199.941" font-family="Times,serif" font-size="14.00" fill="#000000">ones</text>
</g>
<!-- 2858680112318038876&#45;&gt;1521731493697381352 -->
<g id="edge35" class="edge"><title>2858680112318038876&#45;&gt;1521731493697381352</title>
<path fill="none" stroke="black" stroke-width="3" d="M1130.62,-230.485C1130.62,-243.741 1130.62,-259.977 1130.62,-273.49"/>
<polygon fill="black" stroke="black" stroke-width="3" points="1127.12,-273.636 1130.62,-283.636 1134.12,-273.636 1127.12,-273.636"/>
</g>
<!-- 1521730232503877676 -->
<g id="node42" class="node"><title>1521730232503877676</title>
<polygon fill="none" stroke="black" stroke-width="3" points="658.347,-319.649 532.884,-319.649 532.884,-283.649 658.347,-283.649 658.347,-319.649"/>
<text text-anchor="middle" x="595.616" y="-297.449" font-family="Times,serif" font-size="14.00" fill="#000000">(&#39;wrapped&#45;#0&#39;, 0, 1)</text>
</g>
<!-- 1521730232503877676&#45;&gt;6464522337839281702 -->
<g id="edge38" class="edge"><title>1521730232503877676&#45;&gt;6464522337839281702</title>
<path fill="none" stroke="black" stroke-width="3" d="M569.871,-319.723C544.254,-336.714 505.089,-362.69 478.934,-380.037"/>
<polygon fill="black" stroke="black" stroke-width="3" points="476.667,-377.341 470.268,-385.785 480.536,-383.174 476.667,-377.341"/>
</g>
<!-- &#45;4887019660866451304 -->
<g id="node48" class="node"><title>&#45;4887019660866451304</title>
<ellipse fill="none" stroke="black" stroke-width="3" cx="592.616" cy="-399.156" rx="43.5146" ry="43.5146"/>
<text text-anchor="middle" x="592.616" y="-394.956" font-family="Times,serif" font-size="14.00" fill="#000000">transpose</text>
</g>
<!-- 1521730232503877676&#45;&gt;&#45;4887019660866451304 -->
<g id="edge44" class="edge"><title>1521730232503877676&#45;&gt;&#45;4887019660866451304</title>
<path fill="none" stroke="black" stroke-width="3" d="M595.079,-319.723C594.849,-327.052 594.566,-336.053 594.276,-345.312"/>
<polygon fill="black" stroke="black" stroke-width="3" points="590.775,-345.288 593.959,-355.393 597.771,-345.508 590.775,-345.288"/>
</g>
<!-- &#45;9176861198518116848 -->
<g id="node43" class="node"><title>&#45;9176861198518116848</title>
<ellipse fill="none" stroke="black" stroke-width="3" cx="595.616" cy="-204.141" rx="26.1352" ry="26.1352"/>
<text text-anchor="middle" x="595.616" y="-199.941" font-family="Times,serif" font-size="14.00" fill="#000000">ones</text>
</g>
<!-- &#45;9176861198518116848&#45;&gt;1521730232503877676 -->
<g id="edge36" class="edge"><title>&#45;9176861198518116848&#45;&gt;1521730232503877676</title>
<path fill="none" stroke="black" stroke-width="3" d="M595.616,-230.485C595.616,-243.741 595.616,-259.977 595.616,-273.49"/>
<polygon fill="black" stroke="black" stroke-width="3" points="592.116,-273.636 595.616,-283.636 599.116,-273.636 592.116,-273.636"/>
</g>
<!-- 5787578160389815534 -->
<g id="node44" class="node"><title>5787578160389815534</title>
<polygon fill="none" stroke="black" stroke-width="3" points="500.361,-514.663 402.87,-514.663 402.87,-478.663 500.361,-478.663 500.361,-514.663"/>
<text text-anchor="middle" x="451.616" y="-492.463" font-family="Times,serif" font-size="14.00" fill="#000000">(&#39;add&#45;#1&#39;, 0, 1)</text>
</g>
<!-- 6464522337839281702&#45;&gt;5787578160389815534 -->
<g id="edge37" class="edge"><title>6464522337839281702&#45;&gt;5787578160389815534</title>
<path fill="none" stroke="black" stroke-width="3" d="M451.616,-422.307C451.616,-435.92 451.616,-453.473 451.616,-467.996"/>
<polygon fill="black" stroke="black" stroke-width="3" points="448.116,-468.395 451.616,-478.395 455.116,-468.395 448.116,-468.395"/>
</g>
<!-- &#45;273327164612222911&#45;&gt;7461139096575011185 -->
<g id="edge40" class="edge"><title>&#45;273327164612222911&#45;&gt;7461139096575011185</title>
<path fill="none" stroke="black" stroke-width="3" d="M1309.06,-247.588C1309.96,-256.22 1310.89,-265.085 1311.72,-273.038"/>
<polygon fill="black" stroke="black" stroke-width="3" points="1308.27,-273.628 1312.79,-283.209 1315.23,-272.899 1308.27,-273.628"/>
</g>
<!-- 6689728909970082543 -->
<g id="node47" class="node"><title>6689728909970082543</title>
<ellipse fill="none" stroke="black" stroke-width="3" cx="771.616" cy="-26.317" rx="26.1352" ry="26.1352"/>
<text text-anchor="middle" x="771.616" y="-22.117" font-family="Times,serif" font-size="14.00" fill="#000000">ones</text>
</g>
<!-- 6689728909970082543&#45;&gt;1521730232502712627 -->
<g id="edge42" class="edge"><title>6689728909970082543&#45;&gt;1521730232502712627</title>
<path fill="none" stroke="black" stroke-width="3" d="M771.616,-52.9609C771.616,-61.0256 771.616,-69.962 771.616,-78.1491"/>
<polygon fill="black" stroke="black" stroke-width="3" points="768.116,-78.3439 771.616,-88.3439 775.116,-78.3439 768.116,-78.3439"/>
</g>
<!-- &#45;4887019660866451304&#45;&gt;7461142880163677556 -->
<g id="edge43" class="edge"><title>&#45;4887019660866451304&#45;&gt;7461142880163677556</title>
<path fill="none" stroke="black" stroke-width="3" d="M589.505,-442.603C588.872,-451.234 588.222,-460.1 587.639,-468.052"/>
<polygon fill="black" stroke="black" stroke-width="3" points="584.134,-467.995 586.894,-478.224 591.116,-468.506 584.134,-467.995"/>
</g>
<!-- 5787578160388650485 -->
<g id="node49" class="node"><title>5787578160388650485</title>
<polygon fill="none" stroke="black" stroke-width="3" points="827.361,-514.663 729.87,-514.663 729.87,-478.663 827.361,-478.663 827.361,-514.663"/>
<text text-anchor="middle" x="778.616" y="-492.463" font-family="Times,serif" font-size="14.00" fill="#000000">(&#39;add&#45;#1&#39;, 0, 0)</text>
</g>
<!-- 7811144219563916277&#45;&gt;5787578160388650485 -->
<g id="edge45" class="edge"><title>7811144219563916277&#45;&gt;5787578160388650485</title>
<path fill="none" stroke="black" stroke-width="3" d="M778.616,-422.307C778.616,-435.92 778.616,-453.473 778.616,-467.996"/>
<polygon fill="black" stroke="black" stroke-width="3" points="775.116,-468.395 778.616,-478.395 782.116,-468.395 775.116,-468.395"/>
</g>
<!-- &#45;127796588828830036&#45;&gt;7461139096573846136 -->
<g id="edge48" class="edge"><title>&#45;127796588828830036&#45;&gt;7461139096573846136</title>
<path fill="none" stroke="black" stroke-width="3" d="M1122.27,-442.881C1122,-451.486 1121.73,-460.311 1121.48,-468.222"/>
<polygon fill="black" stroke="black" stroke-width="3" points="1117.98,-468.231 1121.16,-478.336 1124.97,-468.451 1117.98,-468.231"/>
</g>
<!-- &#45;2801631499120749838 -->
<g id="node52" class="node"><title>&#45;2801631499120749838</title>
<ellipse fill="none" stroke="black" stroke-width="3" cx="954.616" cy="-26.317" rx="26.1352" ry="26.1352"/>
<text text-anchor="middle" x="954.616" y="-22.117" font-family="Times,serif" font-size="14.00" fill="#000000">ones</text>
</g>
<!-- &#45;2801631499120749838&#45;&gt;1521732754897875322 -->
<g id="edge50" class="edge"><title>&#45;2801631499120749838&#45;&gt;1521732754897875322</title>
<path fill="none" stroke="black" stroke-width="3" d="M954.616,-52.9609C954.616,-61.0256 954.616,-69.962 954.616,-78.1491"/>
<polygon fill="black" stroke="black" stroke-width="3" points="951.116,-78.3439 954.616,-88.3439 958.116,-78.3439 951.116,-78.3439"/>
</g>
<!-- &#45;4483112435916057929&#45;&gt;7461142880162512507 -->
<g id="edge51" class="edge"><title>&#45;4483112435916057929&#45;&gt;7461142880162512507</title>
<path fill="none" stroke="black" stroke-width="3" d="M1505.5,-247.588C1506.5,-256.22 1507.52,-265.085 1508.44,-273.038"/>
<polygon fill="black" stroke="black" stroke-width="3" points="1504.99,-273.675 1509.61,-283.209 1511.94,-272.874 1504.99,-273.675"/>
</g>
<!-- 3878565563061796139&#45;&gt;7461139096572681087 -->
<g id="edge53" class="edge"><title>3878565563061796139&#45;&gt;7461139096572681087</title>
<path fill="none" stroke="black" stroke-width="3" d="M113.06,-247.588C113.964,-256.22 114.892,-265.085 115.725,-273.038"/>
<polygon fill="black" stroke="black" stroke-width="3" points="112.267,-273.628 116.79,-283.209 119.229,-272.899 112.267,-273.628"/>
</g>
</g>
</svg>
