<?xml version="1.0" encoding="UTF-8" standalone="no"?>
<!DOCTYPE svg PUBLIC "-//W3C//DTD SVG 1.1//EN"
 "http://www.w3.org/Graphics/SVG/1.1/DTD/svg11.dtd">
<!-- Generated by graphviz version 2.38.0 (20140413.2041)
 -->
<!-- Title: %3 Pages: 1 -->
<svg width="1493pt" height="501pt"
 viewBox="0.00 0.00 1492.56 501.04" xmlns="http://www.w3.org/2000/svg" xmlns:xlink="http://www.w3.org/1999/xlink">
<g id="graph0" class="graph" transform="scale(1 1) rotate(0) translate(4 497.038)">
<title>%3</title>
<polygon fill="none" stroke="none" points="-4,4 -4,-497.038 1488.56,-497.038 1488.56,4 -4,4"/>
<!-- 2681659168076794464 -->
<g id="node1" class="node"><title>2681659168076794464</title>
<polygon fill="none" stroke="white" stroke-width="3" points="1484.34,-292.142 1336.22,-292.142 1336.22,-256.142 1484.34,-256.142 1484.34,-292.142"/>
<text text-anchor="middle" x="1410.28" y="-269.942" font-family="Times,serif" font-size="14.00" fill="#ffffff">(&#39;mean_chunk&#45;#0&#39;, 0, 0)</text>
</g>
<!-- 3413684331394896183 -->
<g id="node24" class="node"><title>3413684331394896183</title>
<ellipse fill="none" stroke="white" stroke-width="3" cx="742.281" cy="-374.59" rx="46.3959" ry="46.3959"/>
<text text-anchor="middle" x="742.281" y="-370.39" font-family="Times,serif" font-size="14.00" fill="#ffffff">mean_agg</text>
</g>
<!-- 2681659168076794464&#45;&gt;3413684331394896183 -->
<g id="edge16" class="edge"><title>2681659168076794464&#45;&gt;3413684331394896183</title>
<path fill="none" stroke="white" stroke-width="3" d="M1336.12,-290.406C1332.8,-291.009 1329.51,-291.591 1326.28,-292.142 1133.41,-325.077 902.994,-354.235 798.613,-366.896"/>
<polygon fill="white" stroke="white" stroke-width="3" points="798.118,-363.431 788.611,-368.106 798.958,-370.38 798.118,-363.431"/>
</g>
<!-- &#45;5498676906936286493 -->
<g id="node2" class="node"><title>&#45;5498676906936286493</title>
<ellipse fill="none" stroke="white" stroke-width="3" cx="1410.28" cy="-190.388" rx="29.5104" ry="29.5104"/>
<text text-anchor="middle" x="1410.28" y="-186.188" font-family="Times,serif" font-size="14.00" fill="#ffffff">apply</text>
</g>
<!-- &#45;5498676906936286493&#45;&gt;2681659168076794464 -->
<g id="edge1" class="edge"><title>&#45;5498676906936286493&#45;&gt;2681659168076794464</title>
<path fill="none" stroke="white" stroke-width="3" d="M1410.28,-220.442C1410.28,-228.739 1410.28,-237.747 1410.28,-245.93"/>
<polygon fill="white" stroke="white" stroke-width="3" points="1406.78,-246.082 1410.28,-256.082 1413.78,-246.082 1406.78,-246.082"/>
</g>
<!-- 6395125585660467169 -->
<g id="node3" class="node"><title>6395125585660467169</title>
<polygon fill="none" stroke="white" stroke-width="3" points="1473.01,-124.634 1347.55,-124.634 1347.55,-88.6339 1473.01,-88.6339 1473.01,-124.634"/>
<text text-anchor="middle" x="1410.28" y="-102.434" font-family="Times,serif" font-size="14.00" fill="#ffffff">(&#39;wrapped&#45;#1&#39;, 0, 0)</text>
</g>
<!-- 6395125585660467169&#45;&gt;&#45;5498676906936286493 -->
<g id="edge2" class="edge"><title>6395125585660467169&#45;&gt;&#45;5498676906936286493</title>
<path fill="none" stroke="white" stroke-width="3" d="M1410.28,-124.972C1410.28,-132.383 1410.28,-141.361 1410.28,-150.231"/>
<polygon fill="white" stroke="white" stroke-width="3" points="1406.78,-150.493 1410.28,-160.493 1413.78,-150.493 1406.78,-150.493"/>
</g>
<!-- 6395123063268799621 -->
<g id="node4" class="node"><title>6395123063268799621</title>
<polygon fill="none" stroke="white" stroke-width="3" points="638.013,-124.634 512.55,-124.634 512.55,-88.6339 638.013,-88.6339 638.013,-124.634"/>
<text text-anchor="middle" x="575.281" y="-102.434" font-family="Times,serif" font-size="14.00" fill="#ffffff">(&#39;wrapped&#45;#1&#39;, 2, 2)</text>
</g>
<!-- 809290823096624675 -->
<g id="node30" class="node"><title>809290823096624675</title>
<ellipse fill="none" stroke="white" stroke-width="3" cx="575.281" cy="-190.388" rx="29.5104" ry="29.5104"/>
<text text-anchor="middle" x="575.281" y="-186.188" font-family="Times,serif" font-size="14.00" fill="#ffffff">apply</text>
</g>
<!-- 6395123063268799621&#45;&gt;809290823096624675 -->
<g id="edge26" class="edge"><title>6395123063268799621&#45;&gt;809290823096624675</title>
<path fill="none" stroke="white" stroke-width="3" d="M575.281,-124.972C575.281,-132.383 575.281,-141.361 575.281,-150.231"/>
<polygon fill="white" stroke="white" stroke-width="3" points="571.781,-150.493 575.281,-160.493 578.781,-150.493 571.781,-150.493"/>
</g>
<!-- 8489942519548496630 -->
<g id="node5" class="node"><title>8489942519548496630</title>
<ellipse fill="none" stroke="white" stroke-width="3" cx="575.281" cy="-26.317" rx="26.1352" ry="26.1352"/>
<text text-anchor="middle" x="575.281" y="-22.117" font-family="Times,serif" font-size="14.00" fill="#ffffff">ones</text>
</g>
<!-- 8489942519548496630&#45;&gt;6395123063268799621 -->
<g id="edge3" class="edge"><title>8489942519548496630&#45;&gt;6395123063268799621</title>
<path fill="none" stroke="white" stroke-width="3" d="M575.281,-52.9609C575.281,-61.0256 575.281,-69.962 575.281,-78.1491"/>
<polygon fill="white" stroke="white" stroke-width="3" points="571.781,-78.3439 575.281,-88.3439 578.781,-78.3439 571.781,-78.3439"/>
</g>
<!-- 2681657906877465543 -->
<g id="node6" class="node"><title>2681657906877465543</title>
<polygon fill="none" stroke="white" stroke-width="3" points="148.344,-292.142 0.218108,-292.142 0.218108,-256.142 148.344,-256.142 148.344,-292.142"/>
<text text-anchor="middle" x="74.2812" y="-269.942" font-family="Times,serif" font-size="14.00" fill="#ffffff">(&#39;mean_chunk&#45;#0&#39;, 1, 2)</text>
</g>
<!-- 2681657906877465543&#45;&gt;3413684331394896183 -->
<g id="edge18" class="edge"><title>2681657906877465543&#45;&gt;3413684331394896183</title>
<path fill="none" stroke="white" stroke-width="3" d="M148.439,-290.406C151.762,-291.009 155.055,-291.591 158.281,-292.142 351.155,-325.077 581.569,-354.235 685.95,-366.896"/>
<polygon fill="white" stroke="white" stroke-width="3" points="685.604,-370.38 695.952,-368.106 686.444,-363.431 685.604,-370.38"/>
</g>
<!-- &#45;6826038941401484828 -->
<g id="node7" class="node"><title>&#45;6826038941401484828</title>
<ellipse fill="none" stroke="white" stroke-width="3" cx="74.2812" cy="-190.388" rx="29.5104" ry="29.5104"/>
<text text-anchor="middle" x="74.2812" y="-186.188" font-family="Times,serif" font-size="14.00" fill="#ffffff">apply</text>
</g>
<!-- &#45;6826038941401484828&#45;&gt;2681657906877465543 -->
<g id="edge4" class="edge"><title>&#45;6826038941401484828&#45;&gt;2681657906877465543</title>
<path fill="none" stroke="white" stroke-width="3" d="M74.2812,-220.442C74.2812,-228.739 74.2812,-237.747 74.2812,-245.93"/>
<polygon fill="white" stroke="white" stroke-width="3" points="70.7813,-246.082 74.2812,-256.082 77.7813,-246.082 70.7813,-246.082"/>
</g>
<!-- 6395126846859796090 -->
<g id="node8" class="node"><title>6395126846859796090</title>
<polygon fill="none" stroke="white" stroke-width="3" points="137.013,-124.634 11.5496,-124.634 11.5496,-88.6339 137.013,-88.6339 137.013,-124.634"/>
<text text-anchor="middle" x="74.2812" y="-102.434" font-family="Times,serif" font-size="14.00" fill="#ffffff">(&#39;wrapped&#45;#1&#39;, 1, 2)</text>
</g>
<!-- 6395126846859796090&#45;&gt;&#45;6826038941401484828 -->
<g id="edge5" class="edge"><title>6395126846859796090&#45;&gt;&#45;6826038941401484828</title>
<path fill="none" stroke="white" stroke-width="3" d="M74.2812,-124.972C74.2812,-132.383 74.2812,-141.361 74.2812,-150.231"/>
<polygon fill="white" stroke="white" stroke-width="3" points="70.7813,-150.493 74.2812,-160.493 77.7813,-150.493 70.7813,-150.493"/>
</g>
<!-- 6395126846857465992 -->
<g id="node9" class="node"><title>6395126846857465992</title>
<polygon fill="none" stroke="white" stroke-width="3" points="1306.01,-124.634 1180.55,-124.634 1180.55,-88.6339 1306.01,-88.6339 1306.01,-124.634"/>
<text text-anchor="middle" x="1243.28" y="-102.434" font-family="Times,serif" font-size="14.00" fill="#ffffff">(&#39;wrapped&#45;#1&#39;, 1, 0)</text>
</g>
<!-- 758487047101808274 -->
<g id="node37" class="node"><title>758487047101808274</title>
<ellipse fill="none" stroke="white" stroke-width="3" cx="1243.28" cy="-190.388" rx="29.5104" ry="29.5104"/>
<text text-anchor="middle" x="1243.28" y="-186.188" font-family="Times,serif" font-size="14.00" fill="#ffffff">apply</text>
</g>
<!-- 6395126846857465992&#45;&gt;758487047101808274 -->
<g id="edge36" class="edge"><title>6395126846857465992&#45;&gt;758487047101808274</title>
<path fill="none" stroke="white" stroke-width="3" d="M1243.28,-124.972C1243.28,-132.383 1243.28,-141.361 1243.28,-150.231"/>
<polygon fill="white" stroke="white" stroke-width="3" points="1239.78,-150.493 1243.28,-160.493 1246.78,-150.493 1239.78,-150.493"/>
</g>
<!-- &#45;1578829920378787765 -->
<g id="node10" class="node"><title>&#45;1578829920378787765</title>
<ellipse fill="none" stroke="white" stroke-width="3" cx="1243.28" cy="-26.317" rx="26.1352" ry="26.1352"/>
<text text-anchor="middle" x="1243.28" y="-22.117" font-family="Times,serif" font-size="14.00" fill="#ffffff">ones</text>
</g>
<!-- &#45;1578829920378787765&#45;&gt;6395126846857465992 -->
<g id="edge6" class="edge"><title>&#45;1578829920378787765&#45;&gt;6395126846857465992</title>
<path fill="none" stroke="white" stroke-width="3" d="M1243.28,-52.9609C1243.28,-61.0256 1243.28,-69.962 1243.28,-78.1491"/>
<polygon fill="white" stroke="white" stroke-width="3" points="1239.78,-78.3439 1243.28,-88.3439 1246.78,-78.3439 1239.78,-78.3439"/>
</g>
<!-- 6395123063267634572 -->
<g id="node11" class="node"><title>6395123063267634572</title>
<polygon fill="none" stroke="white" stroke-width="3" points="471.013,-124.634 345.55,-124.634 345.55,-88.6339 471.013,-88.6339 471.013,-124.634"/>
<text text-anchor="middle" x="408.281" y="-102.434" font-family="Times,serif" font-size="14.00" fill="#ffffff">(&#39;wrapped&#45;#1&#39;, 2, 1)</text>
</g>
<!-- &#45;241224452951345550 -->
<g id="node20" class="node"><title>&#45;241224452951345550</title>
<ellipse fill="none" stroke="white" stroke-width="3" cx="408.281" cy="-190.388" rx="29.5104" ry="29.5104"/>
<text text-anchor="middle" x="408.281" y="-186.188" font-family="Times,serif" font-size="14.00" fill="#ffffff">apply</text>
</g>
<!-- 6395123063267634572&#45;&gt;&#45;241224452951345550 -->
<g id="edge13" class="edge"><title>6395123063267634572&#45;&gt;&#45;241224452951345550</title>
<path fill="none" stroke="white" stroke-width="3" d="M408.281,-124.972C408.281,-132.383 408.281,-141.361 408.281,-150.231"/>
<polygon fill="white" stroke="white" stroke-width="3" points="404.781,-150.493 408.281,-160.493 411.781,-150.493 404.781,-150.493"/>
</g>
<!-- &#45;8457059789788751961 -->
<g id="node12" class="node"><title>&#45;8457059789788751961</title>
<ellipse fill="none" stroke="white" stroke-width="3" cx="408.281" cy="-26.317" rx="26.1352" ry="26.1352"/>
<text text-anchor="middle" x="408.281" y="-22.117" font-family="Times,serif" font-size="14.00" fill="#ffffff">ones</text>
</g>
<!-- &#45;8457059789788751961&#45;&gt;6395123063267634572 -->
<g id="edge7" class="edge"><title>&#45;8457059789788751961&#45;&gt;6395123063267634572</title>
<path fill="none" stroke="white" stroke-width="3" d="M408.281,-52.9609C408.281,-61.0256 408.281,-69.962 408.281,-78.1491"/>
<polygon fill="white" stroke="white" stroke-width="3" points="404.781,-78.3439 408.281,-88.3439 411.781,-78.3439 404.781,-78.3439"/>
</g>
<!-- 6395126846856300943 -->
<g id="node13" class="node"><title>6395126846856300943</title>
<polygon fill="none" stroke="white" stroke-width="3" points="972.013,-124.634 846.55,-124.634 846.55,-88.6339 972.013,-88.6339 972.013,-124.634"/>
<text text-anchor="middle" x="909.281" y="-102.434" font-family="Times,serif" font-size="14.00" fill="#ffffff">(&#39;wrapped&#45;#1&#39;, 1, 1)</text>
</g>
<!-- &#45;3713563634532438303 -->
<g id="node36" class="node"><title>&#45;3713563634532438303</title>
<ellipse fill="none" stroke="white" stroke-width="3" cx="909.281" cy="-190.388" rx="29.5104" ry="29.5104"/>
<text text-anchor="middle" x="909.281" y="-186.188" font-family="Times,serif" font-size="14.00" fill="#ffffff">apply</text>
</g>
<!-- 6395126846856300943&#45;&gt;&#45;3713563634532438303 -->
<g id="edge34" class="edge"><title>6395126846856300943&#45;&gt;&#45;3713563634532438303</title>
<path fill="none" stroke="white" stroke-width="3" d="M909.281,-124.972C909.281,-132.383 909.281,-141.361 909.281,-150.231"/>
<polygon fill="white" stroke="white" stroke-width="3" points="905.781,-150.493 909.281,-160.493 912.781,-150.493 905.781,-150.493"/>
</g>
<!-- 2365756063449588076 -->
<g id="node14" class="node"><title>2365756063449588076</title>
<ellipse fill="none" stroke="white" stroke-width="3" cx="909.281" cy="-26.317" rx="26.1352" ry="26.1352"/>
<text text-anchor="middle" x="909.281" y="-22.117" font-family="Times,serif" font-size="14.00" fill="#ffffff">ones</text>
</g>
<!-- 2365756063449588076&#45;&gt;6395126846856300943 -->
<g id="edge8" class="edge"><title>2365756063449588076&#45;&gt;6395126846856300943</title>
<path fill="none" stroke="white" stroke-width="3" d="M909.281,-52.9609C909.281,-61.0256 909.281,-69.962 909.281,-78.1491"/>
<polygon fill="white" stroke="white" stroke-width="3" points="905.781,-78.3439 909.281,-88.3439 912.781,-78.3439 905.781,-78.3439"/>
</g>
<!-- 2681656645682796818 -->
<g id="node15" class="node"><title>2681656645682796818</title>
<polygon fill="none" stroke="white" stroke-width="3" points="315.344,-292.142 167.218,-292.142 167.218,-256.142 315.344,-256.142 315.344,-292.142"/>
<text text-anchor="middle" x="241.281" y="-269.942" font-family="Times,serif" font-size="14.00" fill="#ffffff">(&#39;mean_chunk&#45;#0&#39;, 2, 0)</text>
</g>
<!-- 2681656645682796818&#45;&gt;3413684331394896183 -->
<g id="edge19" class="edge"><title>2681656645682796818&#45;&gt;3413684331394896183</title>
<path fill="none" stroke="white" stroke-width="3" d="M315.48,-290.187C318.792,-290.85 322.071,-291.504 325.281,-292.142 454.675,-317.872 606.805,-347.404 686.746,-362.868"/>
<polygon fill="white" stroke="white" stroke-width="3" points="686.117,-366.311 696.6,-364.773 687.446,-359.438 686.117,-366.311"/>
</g>
<!-- &#45;1934570882247923775 -->
<g id="node16" class="node"><title>&#45;1934570882247923775</title>
<ellipse fill="none" stroke="white" stroke-width="3" cx="241.281" cy="-190.388" rx="29.5104" ry="29.5104"/>
<text text-anchor="middle" x="241.281" y="-186.188" font-family="Times,serif" font-size="14.00" fill="#ffffff">apply</text>
</g>
<!-- &#45;1934570882247923775&#45;&gt;2681656645682796818 -->
<g id="edge9" class="edge"><title>&#45;1934570882247923775&#45;&gt;2681656645682796818</title>
<path fill="none" stroke="white" stroke-width="3" d="M241.281,-220.442C241.281,-228.739 241.281,-237.747 241.281,-245.93"/>
<polygon fill="white" stroke="white" stroke-width="3" points="237.781,-246.082 241.281,-256.082 244.781,-246.082 237.781,-246.082"/>
</g>
<!-- 6395123063266469523 -->
<g id="node17" class="node"><title>6395123063266469523</title>
<polygon fill="none" stroke="white" stroke-width="3" points="304.013,-124.634 178.55,-124.634 178.55,-88.6339 304.013,-88.6339 304.013,-124.634"/>
<text text-anchor="middle" x="241.281" y="-102.434" font-family="Times,serif" font-size="14.00" fill="#ffffff">(&#39;wrapped&#45;#1&#39;, 2, 0)</text>
</g>
<!-- 6395123063266469523&#45;&gt;&#45;1934570882247923775 -->
<g id="edge10" class="edge"><title>6395123063266469523&#45;&gt;&#45;1934570882247923775</title>
<path fill="none" stroke="white" stroke-width="3" d="M241.281,-124.972C241.281,-132.383 241.281,-141.361 241.281,-150.231"/>
<polygon fill="white" stroke="white" stroke-width="3" points="237.781,-150.493 241.281,-160.493 244.781,-150.493 237.781,-150.493"/>
</g>
<!-- &#45;6797300122146208936 -->
<g id="node18" class="node"><title>&#45;6797300122146208936</title>
<ellipse fill="none" stroke="white" stroke-width="3" cx="241.281" cy="-26.317" rx="26.1352" ry="26.1352"/>
<text text-anchor="middle" x="241.281" y="-22.117" font-family="Times,serif" font-size="14.00" fill="#ffffff">ones</text>
</g>
<!-- &#45;6797300122146208936&#45;&gt;6395123063266469523 -->
<g id="edge11" class="edge"><title>&#45;6797300122146208936&#45;&gt;6395123063266469523</title>
<path fill="none" stroke="white" stroke-width="3" d="M241.281,-52.9609C241.281,-61.0256 241.281,-69.962 241.281,-78.1491"/>
<polygon fill="white" stroke="white" stroke-width="3" points="237.781,-78.3439 241.281,-88.3439 244.781,-78.3439 237.781,-78.3439"/>
</g>
<!-- 2681656645681631769 -->
<g id="node19" class="node"><title>2681656645681631769</title>
<polygon fill="none" stroke="white" stroke-width="3" points="482.344,-292.142 334.218,-292.142 334.218,-256.142 482.344,-256.142 482.344,-292.142"/>
<text text-anchor="middle" x="408.281" y="-269.942" font-family="Times,serif" font-size="14.00" fill="#ffffff">(&#39;mean_chunk&#45;#0&#39;, 2, 1)</text>
</g>
<!-- 2681656645681631769&#45;&gt;3413684331394896183 -->
<g id="edge23" class="edge"><title>2681656645681631769&#45;&gt;3413684331394896183</title>
<path fill="none" stroke="white" stroke-width="3" d="M466.078,-292.178C528.511,-310.581 627.205,-339.671 688.166,-357.639"/>
<polygon fill="white" stroke="white" stroke-width="3" points="687.402,-361.063 697.983,-360.533 689.381,-354.349 687.402,-361.063"/>
</g>
<!-- &#45;241224452951345550&#45;&gt;2681656645681631769 -->
<g id="edge12" class="edge"><title>&#45;241224452951345550&#45;&gt;2681656645681631769</title>
<path fill="none" stroke="white" stroke-width="3" d="M408.281,-220.442C408.281,-228.739 408.281,-237.747 408.281,-245.93"/>
<polygon fill="white" stroke="white" stroke-width="3" points="404.781,-246.082 408.281,-256.082 411.781,-246.082 404.781,-246.082"/>
</g>
<!-- 6395125585661632218 -->
<g id="node21" class="node"><title>6395125585661632218</title>
<polygon fill="none" stroke="white" stroke-width="3" points="805.013,-124.634 679.55,-124.634 679.55,-88.6339 805.013,-88.6339 805.013,-124.634"/>
<text text-anchor="middle" x="742.281" y="-102.434" font-family="Times,serif" font-size="14.00" fill="#ffffff">(&#39;wrapped&#45;#1&#39;, 0, 1)</text>
</g>
<!-- &#45;4370948559092278268 -->
<g id="node32" class="node"><title>&#45;4370948559092278268</title>
<ellipse fill="none" stroke="white" stroke-width="3" cx="742.281" cy="-190.388" rx="29.5104" ry="29.5104"/>
<text text-anchor="middle" x="742.281" y="-186.188" font-family="Times,serif" font-size="14.00" fill="#ffffff">apply</text>
</g>
<!-- 6395125585661632218&#45;&gt;&#45;4370948559092278268 -->
<g id="edge29" class="edge"><title>6395125585661632218&#45;&gt;&#45;4370948559092278268</title>
<path fill="none" stroke="white" stroke-width="3" d="M742.281,-124.972C742.281,-132.383 742.281,-141.361 742.281,-150.231"/>
<polygon fill="white" stroke="white" stroke-width="3" points="738.781,-150.493 742.281,-160.493 745.781,-150.493 738.781,-150.493"/>
</g>
<!-- 8710615357303243081 -->
<g id="node22" class="node"><title>8710615357303243081</title>
<ellipse fill="none" stroke="white" stroke-width="3" cx="742.281" cy="-26.317" rx="26.1352" ry="26.1352"/>
<text text-anchor="middle" x="742.281" y="-22.117" font-family="Times,serif" font-size="14.00" fill="#ffffff">ones</text>
</g>
<!-- 8710615357303243081&#45;&gt;6395125585661632218 -->
<g id="edge14" class="edge"><title>8710615357303243081&#45;&gt;6395125585661632218</title>
<path fill="none" stroke="white" stroke-width="3" d="M742.281,-52.9609C742.281,-61.0256 742.281,-69.962 742.281,-78.1491"/>
<polygon fill="white" stroke="white" stroke-width="3" points="738.781,-78.3439 742.281,-88.3439 745.781,-78.3439 738.781,-78.3439"/>
</g>
<!-- &#45;7011726492429777124 -->
<g id="node23" class="node"><title>&#45;7011726492429777124</title>
<polygon fill="none" stroke="white" stroke-width="3" points="826.913,-493.038 657.649,-493.038 657.649,-457.038 826.913,-457.038 826.913,-493.038"/>
<text text-anchor="middle" x="742.281" y="-470.838" font-family="Times,serif" font-size="14.00" fill="#ffffff">(&#39;mean_agg&#45;aggregate&#45;#2&#39;,)</text>
</g>
<!-- 3413684331394896183&#45;&gt;&#45;7011726492429777124 -->
<g id="edge15" class="edge"><title>3413684331394896183&#45;&gt;&#45;7011726492429777124</title>
<path fill="none" stroke="white" stroke-width="3" d="M742.281,-421.068C742.281,-429.796 742.281,-438.683 742.281,-446.621"/>
<polygon fill="white" stroke="white" stroke-width="3" points="738.781,-446.754 742.281,-456.754 745.781,-446.754 738.781,-446.754"/>
</g>
<!-- 2681656645680466720 -->
<g id="node25" class="node"><title>2681656645680466720</title>
<polygon fill="none" stroke="white" stroke-width="3" points="649.344,-292.142 501.218,-292.142 501.218,-256.142 649.344,-256.142 649.344,-292.142"/>
<text text-anchor="middle" x="575.281" y="-269.942" font-family="Times,serif" font-size="14.00" fill="#ffffff">(&#39;mean_chunk&#45;#0&#39;, 2, 2)</text>
</g>
<!-- 2681656645680466720&#45;&gt;3413684331394896183 -->
<g id="edge17" class="edge"><title>2681656645680466720&#45;&gt;3413684331394896183</title>
<path fill="none" stroke="white" stroke-width="3" d="M604.37,-292.291C629.015,-306.819 664.86,-327.95 693.829,-345.027"/>
<polygon fill="white" stroke="white" stroke-width="3" points="692.187,-348.122 702.579,-350.185 695.742,-342.092 692.187,-348.122"/>
</g>
<!-- 2681659168075629415 -->
<g id="node26" class="node"><title>2681659168075629415</title>
<polygon fill="none" stroke="white" stroke-width="3" points="816.344,-292.142 668.218,-292.142 668.218,-256.142 816.344,-256.142 816.344,-292.142"/>
<text text-anchor="middle" x="742.281" y="-269.942" font-family="Times,serif" font-size="14.00" fill="#ffffff">(&#39;mean_chunk&#45;#0&#39;, 0, 1)</text>
</g>
<!-- 2681659168075629415&#45;&gt;3413684331394896183 -->
<g id="edge20" class="edge"><title>2681659168075629415&#45;&gt;3413684331394896183</title>
<path fill="none" stroke="white" stroke-width="3" d="M742.281,-292.291C742.281,-299.573 742.281,-308.514 742.281,-317.772"/>
<polygon fill="white" stroke="white" stroke-width="3" points="738.781,-317.879 742.281,-327.879 745.781,-317.879 738.781,-317.879"/>
</g>
<!-- 2681657906880960690 -->
<g id="node27" class="node"><title>2681657906880960690</title>
<polygon fill="none" stroke="white" stroke-width="3" points="983.344,-292.142 835.218,-292.142 835.218,-256.142 983.344,-256.142 983.344,-292.142"/>
<text text-anchor="middle" x="909.281" y="-269.942" font-family="Times,serif" font-size="14.00" fill="#ffffff">(&#39;mean_chunk&#45;#0&#39;, 1, 1)</text>
</g>
<!-- 2681657906880960690&#45;&gt;3413684331394896183 -->
<g id="edge21" class="edge"><title>2681657906880960690&#45;&gt;3413684331394896183</title>
<path fill="none" stroke="white" stroke-width="3" d="M880.192,-292.291C855.547,-306.819 819.702,-327.95 790.733,-345.027"/>
<polygon fill="white" stroke="white" stroke-width="3" points="788.821,-342.092 781.984,-350.185 792.376,-348.122 788.821,-342.092"/>
</g>
<!-- 2681659168079124562 -->
<g id="node28" class="node"><title>2681659168079124562</title>
<polygon fill="none" stroke="white" stroke-width="3" points="1150.34,-292.142 1002.22,-292.142 1002.22,-256.142 1150.34,-256.142 1150.34,-292.142"/>
<text text-anchor="middle" x="1076.28" y="-269.942" font-family="Times,serif" font-size="14.00" fill="#ffffff">(&#39;mean_chunk&#45;#0&#39;, 0, 2)</text>
</g>
<!-- 2681659168079124562&#45;&gt;3413684331394896183 -->
<g id="edge22" class="edge"><title>2681659168079124562&#45;&gt;3413684331394896183</title>
<path fill="none" stroke="white" stroke-width="3" d="M1018.48,-292.178C956.051,-310.581 857.358,-339.671 796.397,-357.639"/>
<polygon fill="white" stroke="white" stroke-width="3" points="795.182,-354.349 786.579,-360.533 797.161,-361.063 795.182,-354.349"/>
</g>
<!-- 2681657906879795641 -->
<g id="node29" class="node"><title>2681657906879795641</title>
<polygon fill="none" stroke="white" stroke-width="3" points="1317.34,-292.142 1169.22,-292.142 1169.22,-256.142 1317.34,-256.142 1317.34,-292.142"/>
<text text-anchor="middle" x="1243.28" y="-269.942" font-family="Times,serif" font-size="14.00" fill="#ffffff">(&#39;mean_chunk&#45;#0&#39;, 1, 0)</text>
</g>
<!-- 2681657906879795641&#45;&gt;3413684331394896183 -->
<g id="edge24" class="edge"><title>2681657906879795641&#45;&gt;3413684331394896183</title>
<path fill="none" stroke="white" stroke-width="3" d="M1169.08,-290.187C1165.77,-290.85 1162.49,-291.504 1159.28,-292.142 1029.89,-317.872 877.758,-347.404 797.816,-362.868"/>
<polygon fill="white" stroke="white" stroke-width="3" points="797.116,-359.438 787.963,-364.773 798.445,-366.311 797.116,-359.438"/>
</g>
<!-- 809290823096624675&#45;&gt;2681656645680466720 -->
<g id="edge25" class="edge"><title>809290823096624675&#45;&gt;2681656645680466720</title>
<path fill="none" stroke="white" stroke-width="3" d="M575.281,-220.442C575.281,-228.739 575.281,-237.747 575.281,-245.93"/>
<polygon fill="white" stroke="white" stroke-width="3" points="571.781,-246.082 575.281,-256.082 578.781,-246.082 571.781,-246.082"/>
</g>
<!-- &#45;8626740574921666310 -->
<g id="node31" class="node"><title>&#45;8626740574921666310</title>
<ellipse fill="none" stroke="white" stroke-width="3" cx="1410.28" cy="-26.317" rx="26.1352" ry="26.1352"/>
<text text-anchor="middle" x="1410.28" y="-22.117" font-family="Times,serif" font-size="14.00" fill="#ffffff">ones</text>
</g>
<!-- &#45;8626740574921666310&#45;&gt;6395125585660467169 -->
<g id="edge27" class="edge"><title>&#45;8626740574921666310&#45;&gt;6395125585660467169</title>
<path fill="none" stroke="white" stroke-width="3" d="M1410.28,-52.9609C1410.28,-61.0256 1410.28,-69.962 1410.28,-78.1491"/>
<polygon fill="white" stroke="white" stroke-width="3" points="1406.78,-78.3439 1410.28,-88.3439 1413.78,-78.3439 1406.78,-78.3439"/>
</g>
<!-- &#45;4370948559092278268&#45;&gt;2681659168075629415 -->
<g id="edge28" class="edge"><title>&#45;4370948559092278268&#45;&gt;2681659168075629415</title>
<path fill="none" stroke="white" stroke-width="3" d="M742.281,-220.442C742.281,-228.739 742.281,-237.747 742.281,-245.93"/>
<polygon fill="white" stroke="white" stroke-width="3" points="738.781,-246.082 742.281,-256.082 745.781,-246.082 738.781,-246.082"/>
</g>
<!-- &#45;9048016889761676159 -->
<g id="node33" class="node"><title>&#45;9048016889761676159</title>
<ellipse fill="none" stroke="white" stroke-width="3" cx="1076.28" cy="-190.388" rx="29.5104" ry="29.5104"/>
<text text-anchor="middle" x="1076.28" y="-186.188" font-family="Times,serif" font-size="14.00" fill="#ffffff">apply</text>
</g>
<!-- &#45;9048016889761676159&#45;&gt;2681659168079124562 -->
<g id="edge30" class="edge"><title>&#45;9048016889761676159&#45;&gt;2681659168079124562</title>
<path fill="none" stroke="white" stroke-width="3" d="M1076.28,-220.442C1076.28,-228.739 1076.28,-237.747 1076.28,-245.93"/>
<polygon fill="white" stroke="white" stroke-width="3" points="1072.78,-246.082 1076.28,-256.082 1079.78,-246.082 1072.78,-246.082"/>
</g>
<!-- 6395125585658137071 -->
<g id="node34" class="node"><title>6395125585658137071</title>
<polygon fill="none" stroke="white" stroke-width="3" points="1139.01,-124.634 1013.55,-124.634 1013.55,-88.6339 1139.01,-88.6339 1139.01,-124.634"/>
<text text-anchor="middle" x="1076.28" y="-102.434" font-family="Times,serif" font-size="14.00" fill="#ffffff">(&#39;wrapped&#45;#1&#39;, 0, 2)</text>
</g>
<!-- 6395125585658137071&#45;&gt;&#45;9048016889761676159 -->
<g id="edge31" class="edge"><title>6395125585658137071&#45;&gt;&#45;9048016889761676159</title>
<path fill="none" stroke="white" stroke-width="3" d="M1076.28,-124.972C1076.28,-132.383 1076.28,-141.361 1076.28,-150.231"/>
<polygon fill="white" stroke="white" stroke-width="3" points="1072.78,-150.493 1076.28,-160.493 1079.78,-150.493 1072.78,-150.493"/>
</g>
<!-- &#45;5140238604736552244 -->
<g id="node35" class="node"><title>&#45;5140238604736552244</title>
<ellipse fill="none" stroke="white" stroke-width="3" cx="1076.28" cy="-26.317" rx="26.1352" ry="26.1352"/>
<text text-anchor="middle" x="1076.28" y="-22.117" font-family="Times,serif" font-size="14.00" fill="#ffffff">ones</text>
</g>
<!-- &#45;5140238604736552244&#45;&gt;6395125585658137071 -->
<g id="edge32" class="edge"><title>&#45;5140238604736552244&#45;&gt;6395125585658137071</title>
<path fill="none" stroke="white" stroke-width="3" d="M1076.28,-52.9609C1076.28,-61.0256 1076.28,-69.962 1076.28,-78.1491"/>
<polygon fill="white" stroke="white" stroke-width="3" points="1072.78,-78.3439 1076.28,-88.3439 1079.78,-78.3439 1072.78,-78.3439"/>
</g>
<!-- &#45;3713563634532438303&#45;&gt;2681657906880960690 -->
<g id="edge33" class="edge"><title>&#45;3713563634532438303&#45;&gt;2681657906880960690</title>
<path fill="none" stroke="white" stroke-width="3" d="M909.281,-220.442C909.281,-228.739 909.281,-237.747 909.281,-245.93"/>
<polygon fill="white" stroke="white" stroke-width="3" points="905.781,-246.082 909.281,-256.082 912.781,-246.082 905.781,-246.082"/>
</g>
<!-- 758487047101808274&#45;&gt;2681657906879795641 -->
<g id="edge35" class="edge"><title>758487047101808274&#45;&gt;2681657906879795641</title>
<path fill="none" stroke="white" stroke-width="3" d="M1243.28,-220.442C1243.28,-228.739 1243.28,-237.747 1243.28,-245.93"/>
<polygon fill="white" stroke="white" stroke-width="3" points="1239.78,-246.082 1243.28,-256.082 1246.78,-246.082 1239.78,-246.082"/>
</g>
<!-- &#45;4103659729150155415 -->
<g id="node38" class="node"><title>&#45;4103659729150155415</title>
<ellipse fill="none" stroke="white" stroke-width="3" cx="74.2812" cy="-26.317" rx="26.1352" ry="26.1352"/>
<text text-anchor="middle" x="74.2812" y="-22.117" font-family="Times,serif" font-size="14.00" fill="#ffffff">ones</text>
</g>
<!-- &#45;4103659729150155415&#45;&gt;6395126846859796090 -->
<g id="edge37" class="edge"><title>&#45;4103659729150155415&#45;&gt;6395126846859796090</title>
<path fill="none" stroke="white" stroke-width="3" d="M74.2812,-52.9609C74.2812,-61.0256 74.2812,-69.962 74.2812,-78.1491"/>
<polygon fill="white" stroke="white" stroke-width="3" points="70.7813,-78.3439 74.2812,-88.3439 77.7813,-78.3439 70.7813,-78.3439"/>
</g>
</g>
</svg>
