<?xml version="1.0" encoding="UTF-8" standalone="no"?>
<!DOCTYPE svg PUBLIC "-//W3C//DTD SVG 1.1//EN"
 "http://www.w3.org/Graphics/SVG/1.1/DTD/svg11.dtd">
<!-- Generated by graphviz version 2.38.0 (20140413.2041)
 -->
<!-- Title: graphname Pages: 1 -->
<svg width="148pt" height="216pt"
 viewBox="0.00 0.00 147.83 216.00" xmlns="http://www.w3.org/2000/svg" xmlns:xlink="http://www.w3.org/1999/xlink">
<g id="graph0" class="graph" transform="scale(1 1) rotate(0) translate(4 212)">
<title>graphname</title>
<polygon fill="none" stroke="none" points="-4,4 -4,-212 143.828,-212 143.828,4 -4,4"/>
<text text-anchor="middle" x="69.9141" y="-8" font-family="Times,serif" font-size="20.00" fill="white">Directed Graph</text>
<!-- a -->
<g id="node1" class="node"><title>a</title>
<ellipse fill="none" stroke="white" stroke-width="3" cx="77.9141" cy="-190" rx="27" ry="18"/>
<text text-anchor="middle" x="77.9141" y="-185.8" font-family="Times,serif" font-size="14.00" fill="#ffffff">a</text>
</g>
<!-- b -->
<g id="node2" class="node"><title>b</title>
<ellipse fill="none" stroke="white" stroke-width="3" cx="50.9141" cy="-118" rx="27" ry="18"/>
<text text-anchor="middle" x="50.9141" y="-113.8" font-family="Times,serif" font-size="14.00" fill="#ffffff">b</text>
</g>
<!-- a&#45;&gt;b -->
<g id="edge1" class="edge"><title>a&#45;&gt;b</title>
<path fill="none" stroke="white" stroke-width="3" d="M71.5154,-172.411C68.4005,-164.335 64.5804,-154.431 61.0795,-145.355"/>
<polygon fill="white" stroke="white" stroke-width="3" points="64.3186,-144.027 57.4543,-135.956 57.7876,-146.546 64.3186,-144.027"/>
</g>
<!-- c -->
<g id="node3" class="node"><title>c</title>
<ellipse fill="none" stroke="white" stroke-width="3" cx="33.9141" cy="-46" rx="27" ry="18"/>
<text text-anchor="middle" x="33.9141" y="-41.8" font-family="Times,serif" font-size="14.00" fill="#ffffff">c</text>
</g>
<!-- b&#45;&gt;c -->
<g id="edge2" class="edge"><title>b&#45;&gt;c</title>
<path fill="none" stroke="white" stroke-width="3" d="M46.7988,-100.055C44.906,-92.2609 42.6137,-82.8219 40.4904,-74.0789"/>
<polygon fill="white" stroke="white" stroke-width="3" points="43.8707,-73.1668 38.1095,-64.2753 37.0684,-74.8189 43.8707,-73.1668"/>
</g>
<!-- d -->
<g id="node4" class="node"><title>d</title>
<ellipse fill="none" stroke="white" stroke-width="3" cx="105.914" cy="-46" rx="27" ry="18"/>
<text text-anchor="middle" x="105.914" y="-41.8" font-family="Times,serif" font-size="14.00" fill="#ffffff">d</text>
</g>
<!-- b&#45;&gt;d -->
<g id="edge3" class="edge"><title>b&#45;&gt;d</title>
<path fill="none" stroke="white" stroke-width="3" d="M62.8482,-101.811C70.1276,-92.5464 79.5767,-80.5203 87.7685,-70.0944"/>
<polygon fill="white" stroke="white" stroke-width="3" points="90.577,-72.1849 94.0032,-62.1593 85.0728,-67.8601 90.577,-72.1849"/>
</g>
<!-- d&#45;&gt;a -->
<g id="edge4" class="edge"><title>d&#45;&gt;a</title>
<path fill="none" stroke="white" stroke-width="3" d="M102.525,-64.1893C97.7248,-88.5311 88.9011,-133.28 83.2264,-162.059"/>
<polygon fill="white" stroke="white" stroke-width="3" points="79.7923,-161.383 81.2915,-171.871 86.6601,-162.738 79.7923,-161.383"/>
</g>
</g>
</svg>
