<?xml version="1.0" encoding="UTF-8" standalone="no"?>
<!DOCTYPE svg PUBLIC "-//W3C//DTD SVG 1.1//EN"
 "http://www.w3.org/Graphics/SVG/1.1/DTD/svg11.dtd">
<!-- Generated by graphviz version 2.38.0 (20140413.2041)
 -->
<!-- Title: graphname Pages: 1 -->
<svg width="214pt" height="216pt"
 viewBox="0.00 0.00 213.92 216.00" xmlns="http://www.w3.org/2000/svg" xmlns:xlink="http://www.w3.org/1999/xlink">
<g id="graph0" class="graph" transform="scale(1 1) rotate(0) translate(4 212)">
<title>graphname</title>
<polygon fill="none" stroke="none" points="-4,4 -4,-212 209.922,-212 209.922,4 -4,4"/>
<text text-anchor="middle" x="102.961" y="-8" font-family="Times,serif" font-size="20.00" fill="white">Directed Acyclic Graph</text>
<!-- a -->
<g id="node1" class="node"><title>a</title>
<ellipse fill="none" stroke="white" stroke-width="3" cx="110.961" cy="-190" rx="27" ry="18"/>
<text text-anchor="middle" x="110.961" y="-185.8" font-family="Times,serif" font-size="14.00" fill="#ffffff">a</text>
</g>
<!-- b -->
<g id="node2" class="node"><title>b</title>
<ellipse fill="none" stroke="white" stroke-width="3" cx="83.9609" cy="-118" rx="27" ry="18"/>
<text text-anchor="middle" x="83.9609" y="-113.8" font-family="Times,serif" font-size="14.00" fill="#ffffff">b</text>
</g>
<!-- a&#45;&gt;b -->
<g id="edge1" class="edge"><title>a&#45;&gt;b</title>
<path fill="none" stroke="white" stroke-width="3" d="M104.562,-172.411C101.447,-164.335 97.6273,-154.431 94.1263,-145.355"/>
<polygon fill="white" stroke="white" stroke-width="3" points="97.3655,-144.027 90.5012,-135.956 90.8345,-146.546 97.3655,-144.027"/>
</g>
<!-- d -->
<g id="node4" class="node"><title>d</title>
<ellipse fill="none" stroke="white" stroke-width="3" cx="138.961" cy="-46" rx="27" ry="18"/>
<text text-anchor="middle" x="138.961" y="-41.8" font-family="Times,serif" font-size="14.00" fill="#ffffff">d</text>
</g>
<!-- a&#45;&gt;d -->
<g id="edge4" class="edge"><title>a&#45;&gt;d</title>
<path fill="none" stroke="white" stroke-width="3" d="M114.338,-171.871C119.131,-147.564 127.954,-102.819 133.634,-74.0132"/>
<polygon fill="white" stroke="white" stroke-width="3" points="137.071,-74.6775 135.572,-64.1893 130.203,-73.3232 137.071,-74.6775"/>
</g>
<!-- c -->
<g id="node3" class="node"><title>c</title>
<ellipse fill="none" stroke="white" stroke-width="3" cx="66.9609" cy="-46" rx="27" ry="18"/>
<text text-anchor="middle" x="66.9609" y="-41.8" font-family="Times,serif" font-size="14.00" fill="#ffffff">c</text>
</g>
<!-- b&#45;&gt;c -->
<g id="edge2" class="edge"><title>b&#45;&gt;c</title>
<path fill="none" stroke="white" stroke-width="3" d="M79.8457,-100.055C77.9529,-92.2609 75.6605,-82.8219 73.5372,-74.0789"/>
<polygon fill="white" stroke="white" stroke-width="3" points="76.9176,-73.1668 71.1564,-64.2753 70.1153,-74.8189 76.9176,-73.1668"/>
</g>
<!-- b&#45;&gt;d -->
<g id="edge3" class="edge"><title>b&#45;&gt;d</title>
<path fill="none" stroke="white" stroke-width="3" d="M95.8951,-101.811C103.174,-92.5464 112.624,-80.5203 120.815,-70.0944"/>
<polygon fill="white" stroke="white" stroke-width="3" points="123.624,-72.1849 127.05,-62.1593 118.12,-67.8601 123.624,-72.1849"/>
</g>
</g>
</svg>
