<?xml version="1.0" encoding="UTF-8" standalone="no"?>
<!DOCTYPE svg PUBLIC "-//W3C//DTD SVG 1.1//EN"
 "http://www.w3.org/Graphics/SVG/1.1/DTD/svg11.dtd">
<!-- Generated by graphviz version 2.38.0 (20140413.2041)
 -->
<!-- Title: graphname Pages: 1 -->
<svg width="134pt" height="216pt"
 viewBox="0.00 0.00 134.00 216.00" xmlns="http://www.w3.org/2000/svg" xmlns:xlink="http://www.w3.org/1999/xlink">
<g id="graph0" class="graph" transform="scale(1 1) rotate(0) translate(4 212)">
<title>graphname</title>
<polygon fill="none" stroke="none" points="-4,4 -4,-212 130,-212 130,4 -4,4"/>
<text text-anchor="middle" x="63" y="-8" font-family="Times,serif" font-size="20.00" fill="white">Graph</text>
<!-- a -->
<g id="node1" class="node"><title>a</title>
<ellipse fill="none" stroke="white" stroke-width="3" cx="71" cy="-190" rx="27" ry="18"/>
<text text-anchor="middle" x="71" y="-185.8" font-family="Times,serif" font-size="14.00" fill="#ffffff">a</text>
</g>
<!-- b -->
<g id="node2" class="node"><title>b</title>
<ellipse fill="none" stroke="white" stroke-width="3" cx="44" cy="-118" rx="27" ry="18"/>
<text text-anchor="middle" x="44" y="-113.8" font-family="Times,serif" font-size="14.00" fill="#ffffff">b</text>
</g>
<!-- a&#45;&#45;b -->
<g id="edge1" class="edge"><title>a&#45;&#45;b</title>
<path fill="none" stroke="white" stroke-width="3" d="M64.6014,-172.411C60.3597,-161.414 54.8106,-147.027 50.5403,-135.956"/>
</g>
<!-- c -->
<g id="node3" class="node"><title>c</title>
<ellipse fill="none" stroke="white" stroke-width="3" cx="27" cy="-46" rx="27" ry="18"/>
<text text-anchor="middle" x="27" y="-41.8" font-family="Times,serif" font-size="14.00" fill="#ffffff">c</text>
</g>
<!-- b&#45;&#45;c -->
<g id="edge2" class="edge"><title>b&#45;&#45;c</title>
<path fill="none" stroke="white" stroke-width="3" d="M39.8848,-100.055C37.2513,-89.2111 33.8444,-75.183 31.1954,-64.2753"/>
</g>
<!-- d -->
<g id="node4" class="node"><title>d</title>
<ellipse fill="none" stroke="white" stroke-width="3" cx="99" cy="-46" rx="27" ry="18"/>
<text text-anchor="middle" x="99" y="-41.8" font-family="Times,serif" font-size="14.00" fill="#ffffff">d</text>
</g>
<!-- b&#45;&#45;d -->
<g id="edge3" class="edge"><title>b&#45;&#45;d</title>
<path fill="none" stroke="white" stroke-width="3" d="M55.9342,-101.811C65.1595,-90.0697 77.8696,-73.8932 87.0891,-62.1593"/>
</g>
<!-- d&#45;&#45;a -->
<g id="edge4" class="edge"><title>d&#45;&#45;a</title>
<path fill="none" stroke="white" stroke-width="3" d="M95.6106,-64.1893C90.2213,-91.5205 79.7592,-144.578 74.3775,-171.871"/>
</g>
</g>
</svg>
